<svg width="28" height="27" viewBox="0 0 28 27" fill="none" xmlns="http://www.w3.org/2000/svg">
<path d="M27.1358 25.1818C25.705 26.3763 24.9556 26.8578 22.9025 27.6845C20.954 28.4657 18.8055 28.8972 16.5526 28.9426C16.43 28.9472 16.3074 28.9472 16.1847 28.9472C9.22621 28.9472 3.26241 24.7048 0.727905 18.6638C0.727905 18.6638 0.727904 12.1913 7.6728 12.6637L19.7685 15.3617C24.3151 17.2194 27.0177 24.9728 27.1358 25.1818Z" fill="#F8F8F8"/>
<path d="M16.1847 29.1334C9.33971 29.1334 3.20331 25.0545 0.555252 18.7365C0.546168 18.7137 0.541626 18.6865 0.541626 18.6638C0.541626 18.5502 0.564336 15.825 2.50836 14.0081C3.7529 12.8453 5.49253 12.3275 7.68638 12.4774L19.8093 15.18C22.5573 16.2973 25.1781 19.7448 27.2175 24.8865C27.2629 25 27.2902 25.0682 27.3038 25.0954C27.3401 25.1726 27.3265 25.2726 27.2584 25.3271C25.8321 26.5171 25.0554 27.0213 22.9751 27.857C20.9812 28.6564 18.8237 29.0834 16.5571 29.1288C16.43 29.1334 16.3073 29.1334 16.1847 29.1334ZM0.918621 18.632C3.51671 24.7866 9.50323 28.7609 16.1847 28.7609C16.3028 28.7655 16.4254 28.7609 16.5481 28.7564C18.7691 28.7109 20.8812 28.2931 22.8343 27.5118C24.8329 26.7079 25.5687 26.2446 26.9132 25.1272C26.8995 25.0954 26.8859 25.0636 26.8723 25.0227C24.8692 19.9765 22.3211 16.6062 19.7003 15.5343L7.63187 12.8453C5.57429 12.7091 3.93005 13.1905 2.76726 14.2806C1.05489 15.884 0.927705 18.305 0.918621 18.632Z" fill="#000200"/>
<path d="M18.5012 4.43786C18.0787 2.40299 16.7615 0.413546 12.333 1.25838C7.90441 2.10321 6.24653 4.3561 6.80976 7.30848C7.37298 10.2609 7.55012 10.4062 7.55012 10.4062C6.85972 10.8105 6.75979 11.3328 6.83247 11.7234C6.93239 12.2548 7.43203 12.8362 8.51305 12.759L9.36697 15.9476L16.6525 17.5964C17.4837 17.3511 18.4149 16.9741 19.0553 16.4245C20.8994 14.8257 19.8456 10.9149 18.5012 4.43786Z" fill="#F8F8F8"/>
<path d="M16.6525 17.7827C16.5708 17.7827 16.4981 17.7282 16.4708 17.6464C16.439 17.5465 16.4981 17.442 16.598 17.4148C17.6245 17.1105 18.4103 16.7289 18.9281 16.2793C20.5179 14.9075 19.8275 11.6508 18.6874 6.25934C18.5648 5.68704 18.4421 5.09202 18.3104 4.47429C17.7517 1.77627 15.8032 0.78155 12.3602 1.44016C8.26778 2.2214 6.40551 4.2381 6.9869 7.27224C7.47291 9.81128 7.66368 10.2382 7.69547 10.2927C7.72272 10.3291 7.73635 10.3745 7.73181 10.4199C7.72727 10.479 7.69093 10.538 7.64097 10.5698C7.01415 10.9377 6.95511 11.3829 7.01415 11.6917C7.105 12.1641 7.54558 12.6456 8.49943 12.5729C8.59935 12.5638 8.69474 12.641 8.69928 12.7455C8.70836 12.85 8.63115 12.9408 8.52668 12.9453C7.32302 13.0316 6.7598 12.3594 6.64624 11.7598C6.58265 11.4328 6.59628 10.8242 7.31393 10.3336C7.15042 9.90666 6.91877 8.9074 6.62353 7.34491C6.0058 4.12001 8.0225 1.88983 12.2966 1.07225C15.9349 0.377303 18.0833 1.49466 18.6874 4.39707C18.8146 5.0148 18.9418 5.60982 19.0598 6.18213C20.2272 11.7099 20.9312 15.0483 19.1779 16.5654C18.6193 17.0514 17.7881 17.4557 16.707 17.7781C16.6889 17.7827 16.6707 17.7827 16.6525 17.7827Z" fill="#000200"/>
<path d="M17.4883 2.26673C16.6026 1.29017 15.0582 0.736034 12.333 1.25384C7.90441 2.09867 6.24653 4.35156 6.80976 7.30393C7.37298 10.2563 7.37298 10.2563 7.37298 10.2563L7.95437 10.1882C8.3995 10.0474 8.69474 10.0156 9.05356 9.96561C9.33517 9.92474 9.53049 10.0428 9.49415 9.75668C9.45781 9.47052 9.42602 9.18437 9.39422 8.90276C9.97107 8.67565 10.4843 8.26686 10.775 7.71727C11.0657 7.15404 10.884 6.34555 10.1437 6.34555C9.98924 6.34555 9.92565 6.49998 9.98015 6.62716C10.1073 6.92694 10.1119 7.22672 10.021 7.48562C9.92565 7.71727 9.73942 7.90349 9.48506 8.01705C9.44419 8.03521 9.41693 8.06701 9.40331 8.10789C9.37605 8.12606 9.3488 8.13968 9.32155 8.15331C9.22616 6.98598 9.25342 5.9413 9.65312 5.29178C11.6517 5.36445 13.5866 4.615 15.0355 3.19786C15.7759 3.13427 16.4708 3.12973 17.0295 3.17969C17.5292 3.2342 17.8198 2.63918 17.4883 2.26673Z" fill="#000200"/>
<path d="M16.2573 10.6197C16.1665 10.6197 16.0847 10.5516 16.0711 10.4562C16.0575 10.3517 16.1301 10.2563 16.2301 10.2427C16.5798 10.1927 16.8523 10.061 16.9614 9.88842C17.0249 9.7885 17.034 9.67949 16.9931 9.54776C16.9023 9.26161 16.2301 9.1844 15.9121 9.19802C15.8122 9.19348 15.735 9.12989 15.7214 9.03451L15.4852 7.33121C15.4715 7.22674 15.5442 7.13136 15.6441 7.11773C15.7441 7.10411 15.8395 7.17678 15.8576 7.27671L16.0711 8.82103C16.4254 8.83465 17.193 8.92095 17.352 9.43421C17.4246 9.6704 17.4019 9.89297 17.2793 10.0837C17.1067 10.3563 16.7524 10.547 16.28 10.6106C16.271 10.6152 16.2664 10.6197 16.2573 10.6197Z" fill="#000200"/>
<path d="M17.5109 7.72178L17.5246 8.09877C17.5382 8.58023 18.2922 8.55752 18.274 8.07606L18.2604 7.69906C18.2468 7.2176 17.4928 7.24031 17.5109 7.72178Z" fill="#000200"/>
<path d="M12.5101 8.53492L12.5237 8.91192C12.5373 9.39338 13.2913 9.37067 13.2732 8.88921L13.2595 8.51221C13.2459 8.0262 12.4919 8.05346 12.5101 8.53492Z" fill="#000200"/>
<path d="M14.1907 12.6227C13.9046 12.6182 13.5185 12.541 13.4549 12.2139C13.4095 11.9778 13.0325 12.0277 13.0824 12.2639C13.1824 12.7681 13.6684 12.9861 14.1453 12.9952C14.3815 12.9952 14.4314 12.6227 14.1907 12.6227Z" fill="#000200"/>
<path d="M6.9006 7.7809C9.03539 6.51365 11.6471 5.9368 13.9818 5.26457C15.4534 4.83761 16.9432 4.47424 18.4421 4.18355C17.9607 2.23952 16.5753 0.445383 12.333 1.25842C7.90441 2.10326 6.24653 4.35615 6.80976 7.30852C6.83701 7.47658 6.8688 7.63101 6.9006 7.7809Z" fill="#F8F8F8"/>
<path d="M6.9006 7.97164C6.87335 7.97164 6.84609 7.9671 6.82338 7.95348C6.76888 7.93077 6.728 7.87626 6.71437 7.81721L6.62353 7.34029C6.0058 4.11539 8.0225 1.88521 12.2966 1.06762C15.8259 0.390849 17.9561 1.42645 18.6238 4.13355C18.6374 4.18352 18.6284 4.23802 18.6011 4.2789C18.5738 4.32432 18.5284 4.35158 18.4785 4.36066C17.0522 4.63773 15.5579 5.0011 14.0363 5.43714C13.632 5.55524 13.2187 5.66879 12.8008 5.78234C10.8068 6.33194 8.7447 6.8997 7.00053 7.93531C6.96419 7.96256 6.9324 7.97164 6.9006 7.97164ZM14.2452 1.24477C13.6774 1.24477 13.0506 1.3129 12.3648 1.44008C8.27232 2.22132 6.41005 4.23802 6.99144 7.27216L7.03232 7.48564C8.76741 6.50908 10.7614 5.95949 12.6918 5.42806C13.1097 5.3145 13.523 5.20095 13.9273 5.08286C15.3898 4.66044 16.8297 4.30615 18.2059 4.03363C17.679 2.16682 16.3709 1.24477 14.2452 1.24477Z" fill="#000200"/>
<path d="M13.7093 28.9517C13.6821 28.9517 13.6503 28.9472 13.623 28.929C13.5322 28.8836 13.4958 28.7701 13.5413 28.6747C13.5503 28.661 14.2589 27.2757 15.4944 24.0281C16.3801 21.7116 17.3793 19.0817 16.8661 18.0688C16.7662 17.8735 16.6072 17.7463 16.3892 17.6873C13.3823 16.8652 12.8145 14.7803 12.4784 13.5358C12.3694 13.1316 12.2558 12.7137 12.1196 12.7137C12.0696 12.7091 12.0242 12.7273 11.9879 12.7954C11.7062 13.3132 12.2604 15.3072 13.2279 16.7153C13.2869 16.8016 13.2642 16.9197 13.1779 16.9787C13.0916 17.0378 12.9735 17.0151 12.9145 16.9288C12.0015 15.6025 11.2339 13.3859 11.6517 12.6183C11.7517 12.4321 11.9152 12.3367 12.1241 12.3412C12.5375 12.3503 12.6646 12.8091 12.8372 13.4404C13.1552 14.6077 13.6866 16.5654 16.4846 17.3285C16.8116 17.4193 17.0523 17.6101 17.1977 17.9053C17.7881 19.0681 16.798 21.6571 15.8441 24.1689C14.5996 27.4392 13.8819 28.8382 13.8728 28.8518C13.8456 28.9154 13.7775 28.9517 13.7093 28.9517Z" fill="#000200"/>
<path d="M11.9288 16.6925C11.8698 16.6925 11.8062 16.6607 11.7699 16.6062C10.8387 15.2026 10.1256 12.918 10.2482 12.1731C10.3436 11.6098 10.6298 11.519 10.7933 11.5144C11.2566 11.4872 11.7699 12.1867 11.9061 12.8044C11.9288 12.9043 11.8652 13.0043 11.7653 13.027C11.6654 13.0497 11.5655 12.9861 11.5428 12.8862C11.4201 12.3411 10.9932 11.8733 10.8069 11.8914C10.7297 11.8914 10.657 12.0232 10.6252 12.2366C10.5253 12.8226 11.1703 15.0119 12.0878 16.4018C12.1469 16.4881 12.1196 16.6062 12.0333 16.6607C12.0015 16.6834 11.9652 16.6925 11.9288 16.6925Z" fill="#000200"/>
<path d="M10.7115 16.5699C10.6524 16.5699 10.5934 16.5426 10.557 16.4881C9.66223 15.1845 9.1853 13.0906 9.1853 12.5228C9.1853 12.0595 9.26706 11.4645 9.6486 11.2601C9.88479 11.133 10.18 11.1829 10.5207 11.41C10.607 11.4691 10.6297 11.5826 10.5752 11.6689C10.5161 11.7552 10.4026 11.7779 10.3163 11.7234C10.1664 11.6235 9.96201 11.5236 9.83028 11.5917C9.66677 11.678 9.56684 12.0368 9.5623 12.5228C9.5623 12.9952 10.0074 15.021 10.8659 16.2746C10.9249 16.3609 10.9022 16.479 10.8159 16.5335C10.7841 16.5608 10.7478 16.5699 10.7115 16.5699Z" fill="#000200"/>
<path d="M7.26855 26.567C7.24129 26.567 7.2095 26.5625 7.18224 26.5489C7.0914 26.5034 7.05507 26.3899 7.10049 26.2945L7.42298 25.6631C8.39045 23.7827 10.6524 19.3723 10.2663 18.5911C9.46693 16.965 8.85828 14.7984 8.59484 13.8718L8.53125 13.6447C8.14063 12.273 8.15426 11.4327 8.58122 11.142C8.84466 10.9603 9.21257 11.033 9.61228 11.3419C9.69404 11.4054 9.7122 11.5235 9.64861 11.6053C9.58502 11.6871 9.46693 11.7052 9.38517 11.6416C9.13081 11.4463 8.90825 11.3782 8.7947 11.4554C8.72656 11.5008 8.40407 11.8233 8.89462 13.5448L8.95821 13.7719C9.21711 14.6894 9.82121 16.8333 10.6025 18.4276C11.034 19.3087 9.43514 22.57 7.75909 25.8403L7.4366 26.4716C7.40481 26.5307 7.33668 26.567 7.26855 26.567Z" fill="#000200"/>
<path d="M19.019 5.48264C15.8985 5.48719 6.8143 9.09817 6.8143 9.09817L6.25562 7.34945C6.25562 7.34945 15.2445 4.0655 18.5966 3.85657L19.019 5.48264Z" fill="#F8F8F8"/>
<path d="M6.80962 9.28435C6.78236 9.28435 6.75511 9.27981 6.72786 9.26618C6.68244 9.24347 6.6461 9.20259 6.62793 9.15263L6.06925 7.40391C6.03746 7.30853 6.08742 7.20406 6.1828 7.17226C6.55072 7.036 15.2352 3.87468 18.5782 3.67029C18.66 3.66575 18.7508 3.7248 18.7736 3.8111L19.196 5.43717C19.2096 5.49168 19.2005 5.55527 19.1642 5.60069C19.1278 5.64611 19.0733 5.67336 19.0143 5.67336C15.9665 5.67791 6.96859 9.23893 6.87775 9.27526C6.85958 9.27981 6.83233 9.28435 6.80962 9.28435ZM6.48713 7.46296L6.92771 8.8483C8.24038 8.33504 15.6985 5.45534 18.7736 5.30091L18.4511 4.05183C15.3125 4.32436 7.71804 7.02237 6.48713 7.46296Z" fill="#000200"/>
<path d="M12.8235 6.1139C12.5374 6.22745 12.2649 6.35917 12.0014 6.52723C11.8016 6.65895 12.0423 6.9451 12.2421 6.81338C12.4738 6.66349 12.7282 6.55448 12.978 6.45001C13.2051 6.36371 13.0461 6.02306 12.8235 6.1139Z" fill="#000200"/>
<path d="M18.3059 4.75586C18.097 4.65593 17.8699 4.59688 17.67 4.48333C17.4611 4.36523 17.2385 4.66501 17.4474 4.78765C17.6791 4.91937 17.9289 4.99659 18.1651 5.11014C18.3877 5.21007 18.5239 4.86032 18.3059 4.75586Z" fill="#000200"/>
<path d="M14.3042 25.6677C12.8507 25.6677 10.5478 24.9682 8.7628 23.4103C8.68558 23.3421 8.6765 23.224 8.74463 23.1468C8.81276 23.0696 8.93086 23.0605 9.00807 23.1287C11.1292 24.9818 14.0907 25.586 15.1127 25.1772C15.2081 25.1408 15.3171 25.1862 15.358 25.2816C15.3988 25.377 15.3489 25.486 15.2535 25.5269C15.0173 25.6177 14.6903 25.6677 14.3042 25.6677Z" fill="#000200"/>
<path d="M7.55011 10.5925C7.4729 10.5925 7.40022 10.5471 7.37297 10.4698C7.33664 10.3744 7.3866 10.2654 7.48198 10.2291C7.53649 10.2109 8.80374 9.7431 9.33971 9.64771C9.44418 9.62954 9.53956 9.69767 9.55773 9.7976C9.5759 9.90207 9.50777 9.99745 9.40784 10.0156C8.90366 10.1065 7.62733 10.5743 7.6137 10.5834C7.59099 10.5879 7.56828 10.5925 7.55011 10.5925Z" fill="#000200"/>
<path d="M20.5634 28.4566C20.5543 28.4566 20.5497 28.4566 20.5406 28.4566C20.4362 28.443 20.3635 28.3476 20.3771 28.2476L20.6905 25.7359C20.7042 25.6314 20.795 25.5633 20.8995 25.5723C21.0039 25.586 21.0766 25.6814 21.063 25.7813L20.7496 28.2931C20.7405 28.3884 20.6587 28.4566 20.5634 28.4566Z" fill="#000200"/>
<path d="M6.22375 25.7767C6.22829 25.7722 6.22829 25.7722 6.23283 25.7722C6.3055 25.6995 6.30096 25.5814 6.22829 25.5087C6.21921 25.4996 5.32441 24.5867 5.86946 21.9386C5.89217 21.8387 5.82404 21.7388 5.72412 21.7161C5.62419 21.6933 5.52426 21.7615 5.50155 21.8614C5.08822 23.869 5.45613 24.9637 5.7332 25.4542C5.89671 25.5632 6.06023 25.6722 6.22375 25.7767Z" fill="#000200"/>
</svg>
